<svg xmlns="http://www.w3.org/2000/svg" viewBox="0 0 1600 900" fill="none">
  <defs>
    <linearGradient id="lineA" x1="0" y1="0" x2="1" y2="1">
      <stop offset="0%" stop-color="#1f7aff" stop-opacity="0.35"/>
      <stop offset="100%" stop-color="#0fb5b2" stop-opacity="0.05"/>
    </linearGradient>
    <linearGradient id="lineB" x1="1" y1="0" x2="0" y2="1">
      <stop offset="0%" stop-color="#0fb5b2" stop-opacity="0.24"/>
      <stop offset="100%" stop-color="#1f7aff" stop-opacity="0.02"/>
    </linearGradient>
    <radialGradient id="glowA" cx="0" cy="0" r="1" gradientUnits="userSpaceOnUse" gradientTransform="translate(310 720) rotate(13) scale(420 280)">
      <stop stop-color="#0fb5b2" stop-opacity="0.16"/>
      <stop offset="1" stop-color="#0fb5b2" stop-opacity="0"/>
    </radialGradient>
    <radialGradient id="glowB" cx="0" cy="0" r="1" gradientUnits="userSpaceOnUse" gradientTransform="translate(1280 160) rotate(-18) scale(360 220)">
      <stop stop-color="#1f7aff" stop-opacity="0.16"/>
      <stop offset="1" stop-color="#1f7aff" stop-opacity="0"/>
    </radialGradient>
  </defs>

  <rect width="1600" height="900" fill="transparent"/>
  <ellipse cx="310" cy="720" rx="420" ry="280" fill="url(#glowA)"/>
  <ellipse cx="1280" cy="160" rx="360" ry="220" fill="url(#glowB)"/>

  <g stroke="url(#lineA)" stroke-width="2">
    <path d="M112 716H420L522 612H832"/>
    <path d="M970 140H1224L1316 234H1490"/>
    <path d="M1180 598H1320L1420 506H1538"/>
    <path d="M312 214H462L602 310H760"/>
  </g>

  <g stroke="url(#lineB)" stroke-width="1.5">
    <path d="M176 126H348L474 226H640"/>
    <path d="M920 762H1128L1256 644H1440"/>
    <path d="M1046 360H1172L1264 438H1412"/>
  </g>

  <g fill="#1f7aff" fill-opacity=".18">
    <circle cx="112" cy="716" r="8"/>
    <circle cx="420" cy="716" r="6"/>
    <circle cx="522" cy="612" r="7"/>
    <circle cx="832" cy="612" r="7"/>
    <circle cx="970" cy="140" r="8"/>
    <circle cx="1224" cy="140" r="6"/>
    <circle cx="1316" cy="234" r="7"/>
    <circle cx="1490" cy="234" r="8"/>
  </g>

  <g fill="#0fb5b2" fill-opacity=".14">
    <circle cx="176" cy="126" r="7"/>
    <circle cx="348" cy="126" r="5"/>
    <circle cx="474" cy="226" r="6"/>
    <circle cx="640" cy="226" r="7"/>
    <circle cx="920" cy="762" r="8"/>
    <circle cx="1128" cy="762" r="5"/>
    <circle cx="1256" cy="644" r="6"/>
    <circle cx="1440" cy="644" r="7"/>
  </g>

  <g stroke="#1f7aff" stroke-opacity=".08">
    <circle cx="1260" cy="192" r="76"/>
    <circle cx="1260" cy="192" r="124"/>
    <circle cx="1260" cy="192" r="184"/>
    <circle cx="332" cy="730" r="94"/>
    <circle cx="332" cy="730" r="158"/>
  </g>
</svg>
