<svg xmlns="http://www.w3.org/2000/svg" viewBox="0 0 1600 900" fill="none">
  <defs>
    <linearGradient id="bg" x1="119" y1="84" x2="1512" y2="842" gradientUnits="userSpaceOnUse">
      <stop stop-color="#FBFEFF"/>
      <stop offset=".42" stop-color="#F2F8FF"/>
      <stop offset="1" stop-color="#E8F2FF"/>
    </linearGradient>
    <radialGradient id="glowA" cx="0" cy="0" r="1" gradientUnits="userSpaceOnUse" gradientTransform="translate(1304 146) rotate(-18) scale(342 232)">
      <stop stop-color="#9ED8FF" stop-opacity=".72"/>
      <stop offset=".52" stop-color="#9ED8FF" stop-opacity=".18"/>
      <stop offset="1" stop-color="#9ED8FF" stop-opacity="0"/>
    </radialGradient>
    <radialGradient id="glowB" cx="0" cy="0" r="1" gradientUnits="userSpaceOnUse" gradientTransform="translate(260 738) rotate(12) scale(456 254)">
      <stop stop-color="#8DF1EB" stop-opacity=".42"/>
      <stop offset=".54" stop-color="#8DF1EB" stop-opacity=".14"/>
      <stop offset="1" stop-color="#8DF1EB" stop-opacity="0"/>
    </radialGradient>
    <linearGradient id="traceBlue" x1="144" y1="164" x2="1392" y2="632" gradientUnits="userSpaceOnUse">
      <stop stop-color="#5FAEFF" stop-opacity=".44"/>
      <stop offset="1" stop-color="#5FAEFF" stop-opacity=".06"/>
    </linearGradient>
    <linearGradient id="traceCyan" x1="1252" y1="146" x2="468" y2="760" gradientUnits="userSpaceOnUse">
      <stop stop-color="#49D9D2" stop-opacity=".38"/>
      <stop offset="1" stop-color="#49D9D2" stop-opacity=".04"/>
    </linearGradient>
    <linearGradient id="panel" x1="0" y1="0" x2="1" y2="1">
      <stop stop-color="#FFFFFF" stop-opacity=".76"/>
      <stop offset=".58" stop-color="#F2F8FF" stop-opacity=".34"/>
      <stop offset="1" stop-color="#E8F2FF" stop-opacity=".12"/>
    </linearGradient>
  </defs>

  <rect width="1600" height="900" fill="url(#bg)"/>
  <ellipse cx="1304" cy="146" rx="342" ry="232" fill="url(#glowA)"/>
  <ellipse cx="260" cy="738" rx="456" ry="254" fill="url(#glowB)"/>

  <g opacity=".22">
    <path d="M0 560H1600" stroke="#8DC4F7" stroke-width="1.2"/>
    <path d="M0 608H1600" stroke="#8DC4F7" stroke-width="1.1"/>
    <path d="M0 662H1600" stroke="#8DC4F7" stroke-width="1"/>
    <path d="M0 724H1600" stroke="#8DC4F7" stroke-width=".95"/>
    <path d="M0 792H1600" stroke="#8DC4F7" stroke-width=".85"/>
  </g>

  <g opacity=".18" stroke="#7CB6ED" stroke-width="1.1">
    <path d="M800 516L56 900"/>
    <path d="M800 516L232 900"/>
    <path d="M800 516L390 900"/>
    <path d="M800 516L548 900"/>
    <path d="M800 516L700 900"/>
    <path d="M800 516L904 900"/>
    <path d="M800 516L1062 900"/>
    <path d="M800 516L1228 900"/>
    <path d="M800 516L1394 900"/>
    <path d="M800 516L1568 900"/>
  </g>

  <g opacity=".54">
    <path d="M1100 92H1388L1498 204V404H1208L1100 292V92Z" fill="url(#panel)"/>
    <path d="M1154 146H1394L1472 224" stroke="#8ABEFF" stroke-opacity=".44" stroke-width="1.4"/>
    <path d="M1154 192H1420" stroke="#8ABEFF" stroke-opacity=".28" stroke-width="1.2"/>
    <path d="M1154 238H1440" stroke="#8ABEFF" stroke-opacity=".22" stroke-width="1.2"/>
    <path d="M1154 286H1416" stroke="#8ABEFF" stroke-opacity=".18" stroke-width="1.1"/>
    <circle cx="1378" cy="160" r="6" fill="#76C4FF" fill-opacity=".52"/>
    <circle cx="1324" cy="238" r="5" fill="#76C4FF" fill-opacity=".36"/>
  </g>

  <g opacity=".44">
    <path d="M122 538H510L672 654V834H286L122 716V538Z" fill="url(#panel)"/>
    <path d="M184 604H554L662 692" stroke="#53D7D0" stroke-opacity=".38" stroke-width="1.35"/>
    <path d="M184 648H594" stroke="#53D7D0" stroke-opacity=".24" stroke-width="1.15"/>
    <path d="M184 694H614" stroke="#53D7D0" stroke-opacity=".18" stroke-width="1.1"/>
    <path d="M184 742H566" stroke="#53D7D0" stroke-opacity=".14" stroke-width="1"/>
    <circle cx="528" cy="648" r="6" fill="#5BDDD6" fill-opacity=".4"/>
  </g>

  <g stroke="url(#traceBlue)" stroke-width="2">
    <path d="M148 172H332L448 272H706"/>
    <path d="M248 270H438L560 366H838"/>
    <path d="M874 158H1116L1232 248H1458"/>
    <path d="M980 510H1208L1328 430H1524"/>
  </g>

  <g stroke="url(#traceCyan)" stroke-width="1.8">
    <path d="M172 650H454L594 568H924"/>
    <path d="M270 748H542L690 654H958"/>
    <path d="M916 330H1126L1266 418H1460"/>
  </g>

  <g fill="#69B4FF" fill-opacity=".32">
    <circle cx="148" cy="172" r="6"/>
    <circle cx="332" cy="172" r="5"/>
    <circle cx="448" cy="272" r="6"/>
    <circle cx="706" cy="272" r="7"/>
    <circle cx="874" cy="158" r="6"/>
    <circle cx="1116" cy="158" r="5"/>
    <circle cx="1232" cy="248" r="6"/>
    <circle cx="1458" cy="248" r="7"/>
    <circle cx="980" cy="510" r="7"/>
    <circle cx="1208" cy="510" r="5"/>
    <circle cx="1328" cy="430" r="6"/>
    <circle cx="1524" cy="430" r="7"/>
  </g>

  <g fill="#4FD7D0" fill-opacity=".28">
    <circle cx="172" cy="650" r="7"/>
    <circle cx="454" cy="650" r="5"/>
    <circle cx="594" cy="568" r="6"/>
    <circle cx="924" cy="568" r="7"/>
    <circle cx="270" cy="748" r="6"/>
    <circle cx="542" cy="748" r="5"/>
    <circle cx="690" cy="654" r="6"/>
    <circle cx="958" cy="654" r="7"/>
  </g>

  <g opacity=".2" stroke="#96C6F4">
    <circle cx="1276" cy="166" r="72"/>
    <circle cx="1276" cy="166" r="122"/>
    <circle cx="286" cy="730" r="86"/>
    <circle cx="286" cy="730" r="150"/>
  </g>
</svg>
